<?xml version="1.0" standalone="no"?>
<!DOCTYPE svg PUBLIC "-//W3C//DTD SVG 20010904//EN"
 "http://www.w3.org/TR/2001/REC-SVG-20010904/DTD/svg10.dtd">
<svg version="1.0" xmlns="http://www.w3.org/2000/svg"
 width="2732.000000pt" height="2048.000000pt" viewBox="0 0 2732.000000 2048.000000"
 preserveAspectRatio="xMidYMid meet">
<metadata>
Created by potrace 1.16, written by Peter Selinger 2001-2019
</metadata>
<g transform="translate(0.000000,2048.000000) scale(0.100000,-0.100000)"
fill="#000000" stroke="none">
<path d="M12483 13968 c-99 -84 -204 -173 -233 -198 -30 -25 -131 -110 -224
-190 -94 -80 -229 -194 -301 -255 -71 -60 -132 -112 -135 -115 -3 -3 -34 -30
-70 -60 -82 -69 -96 -82 -200 -170 -169 -144 -186 -159 -265 -225 -44 -37
-107 -91 -140 -120 -33 -28 -143 -123 -245 -211 -186 -159 -225 -193 -308
-271 l-45 -42 6 -403 c7 -450 24 -1118 35 -1425 9 -229 5 -219 102 -281 52
-34 169 -119 180 -132 3 -3 21 -17 40 -30 19 -13 37 -27 40 -30 3 -3 37 -28
75 -55 39 -27 72 -51 75 -55 3 -3 52 -39 110 -80 58 -41 107 -77 110 -80 3 -3
32 -25 65 -50 33 -25 66 -51 73 -58 8 -6 35 -26 60 -44 26 -17 48 -35 50 -40
2 -4 9 -8 16 -8 7 0 21 -8 32 -18 10 -10 55 -42 99 -72 44 -30 125 -88 180
-130 55 -42 168 -127 250 -189 83 -62 157 -118 165 -125 9 -6 83 -63 165 -125
83 -61 157 -118 165 -124 8 -7 31 -23 50 -37 19 -13 37 -27 40 -30 5 -6 219
-165 260 -193 48 -33 72 -24 202 85 68 56 134 112 148 124 14 12 178 149 365
304 187 155 351 291 365 303 14 12 50 42 80 67 30 25 57 47 60 50 3 3 59 50
125 105 66 54 122 102 125 105 3 3 30 25 60 50 30 25 66 55 80 66 14 12 81 68
150 125 69 57 127 106 130 109 3 3 30 25 60 50 48 39 236 198 266 225 6 6 40
35 75 65 35 30 82 71 103 91 l40 37 1 133 c0 249 -34 1129 -45 1144 -4 6 -10
187 -14 404 -3 217 -9 398 -13 401 -4 4 -60 45 -123 91 -63 46 -270 200 -460
342 -190 142 -358 268 -374 280 -16 12 -41 31 -55 43 -14 11 -48 36 -76 54
-27 19 -52 37 -55 40 -3 4 -160 122 -350 264 -190 141 -352 262 -360 269 -8 7
-31 23 -50 37 -19 14 -42 30 -50 37 -172 137 -448 323 -481 323 -20 0 -71 -38
-206 -152z m447 -598 c25 -20 67 -52 95 -70 27 -19 56 -40 65 -46 8 -7 49 -38
90 -69 41 -31 109 -82 150 -113 41 -32 82 -62 90 -69 11 -9 691 -517 894 -668
l27 -20 -52 -44 c-36 -31 -55 -42 -65 -35 -14 9 -149 107 -399 289 -127 92
-472 340 -755 542 -41 30 -117 82 -167 116 l-93 61 0 109 0 108 38 -28 c20
-15 57 -44 82 -63z m-237 -129 c-10 -9 -48 -41 -83 -71 -36 -30 -67 -57 -70
-60 -3 -3 -30 -25 -60 -50 -30 -25 -57 -47 -60 -50 -3 -3 -32 -27 -65 -55 -33
-27 -67 -56 -75 -65 -8 -8 -36 -32 -62 -53 -26 -21 -53 -43 -60 -50 -7 -7 -67
-57 -132 -112 -66 -55 -153 -129 -195 -164 -42 -35 -134 -114 -206 -177 -71
-62 -141 -122 -154 -133 -12 -11 -57 -51 -99 -88 -118 -107 -125 -112 -136
-106 -6 4 -39 27 -74 52 -48 35 -59 48 -50 56 7 7 74 61 148 120 74 60 137
112 140 115 3 3 41 35 85 70 44 35 82 67 85 70 3 3 48 41 100 85 52 44 97 82
100 85 3 3 41 34 85 70 86 70 116 95 179 150 23 20 66 56 96 80 30 25 57 47
60 50 3 3 30 25 60 50 30 25 66 55 80 67 14 12 104 89 200 170 l175 149 3 -95
c2 -80 0 -96 -15 -110z m31 -576 c3 -209 9 -456 12 -549 l7 -169 -94 72 c-52
39 -114 82 -139 94 l-45 22 -3 335 c-2 184 -6 361 -11 392 l-7 57 75 63 c42
35 87 73 101 84 14 12 39 33 55 47 l30 25 6 -46 c3 -26 9 -218 13 -427z m567
121 c57 -42 138 -100 179 -129 121 -86 497 -355 597 -428 l92 -67 -57 -48
c-106 -91 -337 -299 -375 -337 -20 -22 -43 -37 -50 -34 -13 5 -239 166 -407
290 l-105 78 -3 248 c-1 137 -6 312 -10 389 -7 141 -7 141 14 128 11 -8 67
-48 125 -90z m-909 -642 c4 -3 -37 -42 -90 -87 -54 -45 -99 -84 -102 -87 -3
-3 -25 -21 -50 -40 -25 -19 -56 -45 -70 -56 -14 -12 -70 -59 -125 -105 -55
-46 -102 -86 -105 -89 -3 -3 -23 -20 -44 -37 -36 -29 -40 -30 -55 -15 -20 19
-339 258 -398 297 -24 15 -43 31 -43 35 0 4 26 27 58 51 31 24 63 50 70 56 7
7 41 34 75 60 34 26 64 50 67 53 3 3 48 41 100 85 52 44 100 84 106 90 7 5 20
17 31 25 40 32 128 105 133 110 9 9 143 124 205 175 33 27 62 52 65 55 3 3 30
25 60 50 30 25 64 53 75 63 20 18 20 17 26 -332 3 -193 8 -353 11 -357z
m-1525 23 c98 -73 200 -148 228 -167 27 -19 56 -40 65 -47 8 -7 92 -69 185
-138 94 -70 182 -135 196 -146 14 -10 54 -39 90 -64 35 -25 64 -48 64 -50 0
-2 -55 -51 -123 -109 l-123 -104 -112 89 c-62 50 -119 96 -127 102 -8 7 -31
23 -50 37 -19 13 -37 27 -40 30 -8 8 -69 55 -235 179 -82 62 -157 118 -165
124 -8 7 -51 39 -95 72 -44 33 -82 62 -85 66 -3 3 -22 18 -42 33 -34 25 -50
56 -30 56 4 0 52 38 107 85 55 46 103 84 107 85 3 0 87 -60 185 -133z m4213
-652 c9 -402 18 -691 35 -1100 l5 -131 -52 -39 c-29 -22 -62 -47 -73 -57 -11
-9 -60 -50 -110 -90 -121 -100 -564 -467 -595 -494 -14 -12 -149 -125 -300
-250 -151 -125 -277 -231 -280 -234 -3 -3 -86 -72 -185 -155 -99 -82 -182
-152 -185 -155 -3 -3 -44 -38 -92 -78 l-88 -73 0 114 0 114 85 67 c47 37 91
73 98 79 6 7 35 30 62 52 28 21 52 42 55 45 3 3 30 25 60 50 30 25 57 47 60
50 3 3 32 27 65 54 79 62 144 116 170 141 12 11 42 37 68 58 26 21 52 44 59
50 7 7 38 32 68 56 62 48 144 116 175 146 12 11 49 43 84 70 35 28 73 59 85
70 11 11 41 36 66 55 46 36 96 79 136 116 13 12 49 42 81 67 32 25 69 55 83
67 14 12 45 39 70 59 102 82 95 63 92 250 -2 189 -17 616 -33 956 -6 127 -8
247 -4 266 5 26 2 39 -10 49 -14 12 -21 11 -48 -3 -25 -14 -362 -280 -462
-365 -11 -9 -33 -27 -48 -39 l-28 -22 -65 46 c-63 46 -77 66 -51 76 11 4 246
192 317 253 14 12 68 57 120 100 52 43 145 122 205 174 61 52 128 109 150 127
22 18 63 50 90 73 l50 40 2 -127 c1 -71 7 -330 13 -578z m-2036 108 c101 -76
218 -163 261 -193 42 -30 86 -63 98 -72 44 -33 118 -88 377 -278 146 -107 285
-210 310 -228 54 -40 64 -48 202 -150 l107 -79 -32 -29 c-18 -16 -44 -40 -59
-53 l-27 -23 -86 63 c-93 69 -108 80 -327 237 -78 57 -154 112 -168 122 -14
10 -70 51 -125 91 -55 40 -122 89 -150 109 -174 128 -460 332 -512 365 l-62
40 0 108 c-1 59 1 107 4 107 2 0 87 -62 189 -137z m-284 15 l0 -93 -167 -140
c-91 -77 -171 -144 -177 -150 -6 -5 -51 -44 -101 -85 -49 -41 -95 -79 -101
-85 -42 -38 -91 -80 -169 -145 -50 -41 -92 -77 -95 -80 -3 -4 -59 -51 -125
-105 -66 -55 -122 -102 -125 -105 -3 -3 -30 -25 -60 -50 -30 -25 -57 -47 -60
-50 -20 -21 -280 -240 -285 -240 -3 0 -33 18 -66 40 l-59 41 133 112 c74 62
217 182 318 268 168 143 324 276 469 398 30 25 72 62 95 82 22 19 96 82 165
140 69 57 127 106 130 109 3 3 32 27 65 55 33 27 62 52 65 55 12 13 142 120
146 120 2 0 4 -42 4 -92z m2010 -811 c7 -197 10 -360 7 -363 -3 -3 -58 34
-123 81 -65 47 -124 90 -132 94 -10 6 -14 84 -20 384 -4 208 -6 382 -4 387 2
5 58 53 125 106 l122 97 7 -214 c3 -118 12 -375 18 -572z m-1785 508 c44 -32
82 -60 85 -62 5 -4 -336 -343 -346 -343 -3 0 -49 33 -102 73 -53 40 -119 88
-146 107 l-49 33 25 21 c96 81 263 223 272 231 6 6 29 25 50 42 l39 32 46 -37
c25 -21 82 -64 126 -97z m-2110 31 c33 -23 69 -49 80 -59 11 -10 32 -26 48
-35 l27 -16 1 -281 c1 -154 4 -344 8 -423 6 -136 5 -144 -14 -156 -11 -7 -58
-49 -105 -94 l-85 -80 -6 77 c-4 42 -9 200 -13 351 -3 151 -8 311 -11 355 -17
299 -18 418 -4 410 8 -5 41 -27 74 -49z m2386 -232 c57 -41 128 -91 157 -111
47 -32 64 -53 45 -53 -5 0 -21 -12 -38 -28 -16 -15 -77 -65 -135 -111 -58 -47
-121 -99 -141 -115 -42 -36 -67 -57 -134 -110 -28 -22 -94 -78 -148 -124 l-98
-85 -117 90 c-157 120 -482 364 -510 383 -22 15 -21 16 85 105 59 49 110 93
111 97 2 5 8 8 14 8 12 0 185 -118 248 -170 78 -64 120 -88 142 -82 17 4 310
279 383 359 11 12 23 22 26 22 3 1 52 -33 110 -75z m347 -249 c28 -20 52 -39
52 -44 0 -5 -28 -33 -62 -62 -34 -30 -71 -63 -82 -74 -12 -11 -46 -40 -76 -65
-30 -25 -60 -49 -66 -55 -6 -5 -40 -35 -75 -65 -35 -30 -100 -88 -144 -127
-44 -40 -90 -82 -103 -93 -17 -15 -22 -28 -18 -48 3 -15 8 -202 11 -417 8
-511 24 -1138 31 -1195 l5 -46 -97 -82 c-54 -45 -99 -80 -100 -79 -3 3 -14
254 -24 582 -6 165 -15 415 -20 555 -5 140 -12 336 -15 435 -3 99 -8 212 -10
250 l-5 71 52 39 c93 70 376 298 468 379 14 12 57 46 95 76 39 30 81 65 95 77
14 13 27 23 30 23 3 0 29 -16 58 -35z m441 -319 c83 -59 151 -109 151 -111 0
-2 -39 -36 -87 -76 -49 -41 -90 -76 -93 -79 -3 -3 -30 -25 -60 -50 -30 -25
-127 -106 -215 -180 -88 -74 -171 -144 -184 -155 -38 -31 -175 -148 -181 -155
-3 -3 -45 -39 -95 -80 -49 -41 -99 -83 -110 -93 -20 -18 -20 -18 -26 145 -10
250 -10 538 -1 538 5 0 17 8 28 18 10 9 73 62 139 117 66 55 122 102 125 105
3 3 34 30 70 60 35 30 78 68 95 84 16 15 47 42 68 60 22 17 48 39 59 48 19 16
23 15 93 -35 39 -29 140 -101 224 -161z m-2174 75 c5 -9 150 -123 280 -221 33
-25 67 -50 75 -57 8 -7 38 -30 67 -53 l51 -40 4 -73 c3 -39 5 -196 7 -347 1
-151 4 -292 8 -313 l6 -38 -425 318 c-234 175 -459 343 -501 373 -42 30 -76
58 -77 61 0 3 30 30 68 60 37 29 69 56 72 59 3 3 30 25 60 50 30 25 104 86
163 137 104 89 129 104 142 84z m-678 -384 c108 -86 832 -625 923 -687 19 -13
37 -27 40 -30 3 -3 51 -38 108 -79 l102 -73 0 -148 c0 -81 3 -169 7 -195 l6
-48 -69 49 c-38 26 -71 51 -74 54 -3 3 -48 37 -100 75 -115 83 -223 163 -436
321 -148 109 -429 315 -578 423 -34 25 -83 61 -111 81 -27 21 -80 57 -117 82
l-67 44 42 27 c23 15 83 60 132 101 50 41 92 75 95 75 3 1 46 -32 97 -72z"/>
</g>
</svg>
